<svg xmlns="http://www.w3.org/2000/svg" xmlns:xlink="http://www.w3.org/1999/xlink" version="1.1" x="0px" y="0px" viewBox="0 0 100 125" style="enable-background:new 0 0 100 100;" xml:space="preserve"><g><path d="M49.5,11.2c-21.6,0-39.2,17.6-39.2,39.2s17.6,39.2,39.2,39.2s39.2-17.6,39.2-39.2S71.1,11.2,49.5,11.2z M74.7,54.7   L56.6,72.8c-1.9,1.9-5,2.3-7.1,0.7c-2.7-2-2.9-5.9-0.6-8.2l9.4-9.4c0,0,0-0.1,0-0.1H27.6c-3.2,0-5.8-2.9-5.3-6.2   c0.4-2.7,2.8-4.6,5.5-4.6h30.4c0,0,0.1,0,0-0.1l-9.4-9.4c-2.3-2.3-2.1-6.2,0.6-8.2c2.2-1.6,5.2-1.2,7.1,0.7l18.1,18.1   c1.2,1,2,2.5,2,4.2S76,53.7,74.7,54.7z"/><path d="M49.5,6C24.9,6,5,25.9,5,50.5S24.9,95,49.5,95S94,75.1,94,50.5S74.1,6,49.5,6z M49.5,91.2C27,91.2,8.8,73,8.8,50.5   S27,9.8,49.5,9.8S90.2,28,90.2,50.5S72,91.2,49.5,91.2z"/></g><text x="0" y="115" fill="#000000" font-size="5px" font-weight="bold" font-family="'Helvetica Neue', Helvetica, Arial-Unicode, Arial, Sans-serif">Created by Upop</text><text x="0" y="120" fill="#000000" font-size="5px" font-weight="bold" font-family="'Helvetica Neue', Helvetica, Arial-Unicode, Arial, Sans-serif">from the Noun Project</text></svg>