<svg xmlns="http://www.w3.org/2000/svg" version="1.1" viewBox="-5.0 -10.0 110.0 135.0">
 <path d="m11 68c0 12.699 10.301 23 23 23h32c12.699 0 23-10.301 23-23v-32c0-12.699-10.301-23-23-23h-32c-12.699 0-23 10.301-23 23zm60-41c2.8008 0 5 2.1992 5 5s-2.1992 5-5 5-5-2.1992-5-5 2.1992-5 5-5zm-21 6c10.5 0 19 8.5 19 19s-8.5 19-19 19-19-8.5-19-19 8.5-19 19-19z"/>
 <path d="m63 52c0 7.1797-5.8203 13-13 13s-13-5.8203-13-13 5.8203-13 13-13 13 5.8203 13 13"/>
<text x="0.0" y="117.5" font-size="5.0" font-weight="bold" font-family="Arbeit Regular, Helvetica, Arial-Unicode, Arial, Sans-serif" fill="#000000">Created by Besticons</text><text x="0.0" y="122.5" font-size="5.0" font-weight="bold" font-family="Arbeit Regular, Helvetica, Arial-Unicode, Arial, Sans-serif" fill="#000000">from Noun Project</text></svg>